<svg width="17" height="20" viewBox="0 0 17 20" fill="none" xmlns="http://www.w3.org/2000/svg">
<path fill-rule="evenodd" clip-rule="evenodd" d="M1 8.53903C1.01419 4.36117 4.41253 0.985855 8.59039 1.00004C12.7682 1.01424 16.1436 4.41257 16.1294 8.59043V8.6761C16.078 11.3918 14.5616 13.902 12.7026 15.8638C11.6394 16.9679 10.4521 17.9453 9.16438 18.7766C8.82005 19.0745 8.30932 19.0745 7.96499 18.7766C6.04532 17.5271 4.36048 15.9496 2.98755 14.1162C1.76388 12.5174 1.06913 10.5769 1 8.56473V8.53903Z" stroke="#142F43" stroke-linecap="round" stroke-linejoin="round"/>
<path d="M8.56461 11.1087C9.9036 11.1087 10.9891 10.0232 10.9891 8.68424C10.9891 7.34524 9.9036 6.25977 8.56461 6.25977C7.22561 6.25977 6.14014 7.34524 6.14014 8.68424C6.14014 10.0232 7.22561 11.1087 8.56461 11.1087Z" stroke="#142F43" stroke-linecap="round" stroke-linejoin="round"/>
</svg>
