<svg width="19" height="20" viewBox="0 0 19 20" fill="none" xmlns="http://www.w3.org/2000/svg">
<path fill-rule="evenodd" clip-rule="evenodd" d="M5.62767 19.0001H13.4446C16.316 19.0001 18.5188 17.963 17.8931 13.7888L17.1645 8.13187C16.7788 6.04907 15.4503 5.25195 14.2846 5.25195H4.75341C3.57058 5.25195 2.31919 6.10907 1.87349 8.13187L1.14494 13.7888C0.61353 17.4916 2.75632 19.0001 5.62767 19.0001Z" stroke="#142F43" stroke-linecap="round" stroke-linejoin="round"/>
<path d="M5.49902 5.04563C5.49902 2.81131 7.31029 1.00004 9.54461 1.00004C10.6205 0.995473 11.6539 1.41969 12.4163 2.17889C13.1787 2.93808 13.6073 3.9697 13.6073 5.04563" stroke="#142F43" stroke-linecap="round" stroke-linejoin="round"/>
<path fill-rule="evenodd" clip-rule="evenodd" d="M8.76228 9.10194C8.76228 8.5694 8.33056 8.1377 7.79802 8.1377H7.71231C7.17976 8.1377 6.74805 8.5694 6.74805 9.10194C6.74805 9.63449 7.17976 10.0662 7.71231 10.0662H7.79802C8.33056 10.0662 8.76228 9.63449 8.76228 9.10194Z" fill="#142F43"/>
<path fill-rule="evenodd" clip-rule="evenodd" d="M12.8573 9.10194C12.8573 8.5694 12.4256 8.1377 11.893 8.1377H11.8073C11.2748 8.1377 10.843 8.5694 10.843 9.10194C10.843 9.63449 11.2748 10.0662 11.8073 10.0662H11.893C12.4256 10.0662 12.8573 9.63449 12.8573 9.10194Z" fill="#142F43"/>
</svg>
