<svg width="15" height="15" viewBox="0 0 15 15" fill="none" xmlns="http://www.w3.org/2000/svg">
<g clip-path="url(#clip0_9_130)">
<path d="M14.9875 10.3171C14.9875 12.1889 14.9875 13.1249 14.0516 14.0608C13.1156 14.9968 12.1797 14.9968 10.3078 14.9968H4.69215C2.82027 14.9968 1.88433 14.9968 0.948391 14.0608C0.0124512 13.1249 0.0124512 12.1889 0.0124512 10.3171V4.70143C0.0124512 2.82955 0.0124512 1.89361 0.948391 0.957668C1.88433 0.0217284 2.82027 0.0217285 4.69215 0.0217285H10.3078C12.1797 0.0217285 13.1156 0.0217284 14.0516 0.957668C14.9875 1.89361 14.9875 2.82955 14.9875 4.70143V10.3171Z" fill="#E20031"/>
<path d="M13.367 7.39589C13.367 5.26569 11.6401 3.53882 9.5099 3.53882C7.3797 3.53882 5.65283 5.26569 5.65283 7.39589C5.65283 7.90754 5.75267 8.39572 5.93336 8.84223H9.38661L8.74069 11.253H9.5099C11.6401 11.253 13.367 9.52609 13.367 7.39589Z" fill="#FFAD00"/>
<path d="M4.26612 9.32454L5.7519 3.78003H3.5336L2.04783 9.32454C1.75706 10.4092 2.35581 11.2531 3.60523 11.2531H8.18634L8.70298 9.32454H4.26612Z" fill="white"/>
</g>
<defs>
<clipPath id="clip0_9_130">
<rect width="15" height="15" fill="white"/>
</clipPath>
</defs>
</svg>
