<svg width="22" height="55" viewBox="0 0 22 55" fill="none" xmlns="http://www.w3.org/2000/svg">
<g clip-path="url(#clip0_60_351)">
<path d="M0 2.9375H21.875L18.9375 0H3.1875L0 2.9375Z" fill="#1E0F6D"/>
<path d="M3.31152 0.125488V54.5005L10.749 47.063L18.5615 54.8755V0.125488H3.31152Z" fill="#1B0760"/>
<path d="M8.68652 7.59308L15.5047 7.59308V10.2831C15.5047 10.8002 15.4059 11.2408 15.2084 11.6048C15.0131 11.9688 14.7412 12.2462 14.3928 12.4371C14.0465 12.6301 13.647 12.7267 13.1942 12.7267C12.7415 12.7267 12.342 12.629 11.9957 12.4337C11.6495 12.2384 11.3798 11.9554 11.1867 11.5848C10.9937 11.2164 10.8971 10.7702 10.8971 10.2464V8.53192H12.0523V10.0134C12.0523 10.2908 12.1001 10.5194 12.1955 10.6992C12.2931 10.8812 12.4274 11.0166 12.5983 11.1054C12.7714 11.1964 12.9701 11.2419 13.1942 11.2419C13.4206 11.2419 13.6182 11.1964 13.7868 11.1054C13.9577 11.0166 14.0898 10.8812 14.183 10.6992C14.2785 10.5172 14.3262 10.2864 14.3262 10.0067V9.03462H8.68652V7.59308ZM8.58665 15.8645C8.58665 15.3473 8.69651 14.9001 8.91624 14.5228C9.13818 14.1477 9.44669 13.8581 9.84175 13.6539C10.239 13.4497 10.6996 13.3476 11.2234 13.3476C11.7516 13.3476 12.2132 13.4497 12.6083 13.6539C13.0056 13.8581 13.3141 14.1477 13.5338 14.5228C13.7558 14.9001 13.8667 15.3473 13.8667 15.8645C13.8667 16.3816 13.7558 16.8277 13.5338 17.2028C13.3141 17.5801 13.0056 17.8708 12.6083 18.075C12.2132 18.2792 11.7516 18.3813 11.2234 18.3813C10.6996 18.3813 10.239 18.2792 9.84175 18.075C9.44669 17.8708 9.13818 17.5801 8.91624 17.2028C8.69651 16.8277 8.58665 16.3816 8.58665 15.8645ZM9.68528 15.8711C9.68528 16.1064 9.75186 16.3028 9.88503 16.4604C10.0204 16.618 10.2046 16.7367 10.4377 16.8166C10.6707 16.8987 10.9359 16.9398 11.2334 16.9398C11.5308 16.9398 11.796 16.8987 12.029 16.8166C12.2621 16.7367 12.4463 16.618 12.5817 16.4604C12.7171 16.3028 12.7848 16.1064 12.7848 15.8711C12.7848 15.6336 12.7171 15.4339 12.5817 15.2719C12.4463 15.1121 12.2621 14.9911 12.029 14.909C11.796 14.8291 11.5308 14.7891 11.2334 14.7891C10.9359 14.7891 10.6707 14.8291 10.4377 14.909C10.2046 14.9911 10.0204 15.1121 9.88503 15.2719C9.75186 15.4339 9.68528 15.6336 9.68528 15.8711ZM6.76891 19.3035H13.8002V20.7018H12.9412V20.765C13.0788 20.8272 13.2187 20.9171 13.3607 21.0347C13.505 21.1545 13.6248 21.3099 13.7203 21.5008C13.8179 21.6939 13.8667 21.9336 13.8667 22.2199C13.8667 22.5928 13.7691 22.9368 13.5738 23.2519C13.3807 23.5671 13.0888 23.819 12.6982 24.0077C12.3098 24.1963 11.8226 24.2906 11.2367 24.2906C10.6663 24.2906 10.1847 24.1985 9.79181 24.0143C9.40119 23.8323 9.10489 23.5837 8.90292 23.2686C8.70317 22.9556 8.60329 22.605 8.60329 22.2166C8.60329 21.9413 8.64879 21.7072 8.73979 21.5141C8.83079 21.3232 8.94509 21.1667 9.0827 21.0447C9.22252 20.9226 9.36346 20.8294 9.5055 20.765V20.7217H6.76891V19.3035ZM11.2433 20.6918C10.9393 20.6918 10.6741 20.734 10.4477 20.8183C10.2213 20.9026 10.0448 21.0247 9.91832 21.1845C9.79403 21.3443 9.73189 21.5385 9.73189 21.7671C9.73189 21.9979 9.79514 22.1932 9.92165 22.353C10.0504 22.5129 10.2279 22.6338 10.4543 22.7159C10.6829 22.8003 10.9459 22.8424 11.2433 22.8424C11.5385 22.8424 11.7982 22.8014 12.0224 22.7193C12.2465 22.6371 12.4219 22.5162 12.5484 22.3564C12.6749 22.1966 12.7381 22.0002 12.7381 21.7671C12.7381 21.5363 12.6771 21.341 12.555 21.1812C12.433 21.0236 12.2599 20.9026 12.0357 20.8183C11.8115 20.734 11.5474 20.6918 11.2433 20.6918ZM10.8638 28.5154H13.8002V29.9336H8.68652V28.572H9.61537V28.5187C9.31574 28.4033 9.07493 28.2113 8.89293 27.9428C8.71094 27.6764 8.61994 27.3513 8.61994 26.9673C8.61994 26.6255 8.69762 26.3248 8.85298 26.0651C9.00835 25.8054 9.22918 25.6023 9.51549 25.4559C9.8018 25.3116 10.1447 25.2383 10.5442 25.2361H13.8002V26.6544H10.7972C10.4954 26.6566 10.2568 26.7376 10.0815 26.8974C9.90612 27.0572 9.81845 27.2714 9.81845 27.5399C9.81845 27.7108 9.85729 27.8706 9.93497 28.0193C10.0149 28.168 10.1325 28.2879 10.2879 28.3789C10.4432 28.4721 10.6352 28.5176 10.8638 28.5154ZM15.5047 32.4863H8.68652V31.068H15.5047V32.4863ZM8.58998 35.0805C8.58998 34.7543 8.64657 34.4635 8.75977 34.2083C8.87518 33.9531 9.04497 33.7511 9.26913 33.6024C9.49552 33.4559 9.77739 33.3827 10.1147 33.3827C10.3988 33.3827 10.6374 33.4348 10.8305 33.5391C11.0236 33.6434 11.179 33.7855 11.2966 33.9653C11.4142 34.145 11.503 34.3492 11.5629 34.5778C11.6229 34.8087 11.665 35.0506 11.6895 35.3036C11.7205 35.601 11.7494 35.8407 11.776 36.0227C11.8049 36.2047 11.847 36.3368 11.9025 36.4189C11.958 36.501 12.0401 36.5421 12.1489 36.5421H12.1689C12.3797 36.5421 12.5428 36.4755 12.6582 36.3423C12.7737 36.2114 12.8314 36.0249 12.8314 35.783C12.8314 35.5278 12.7748 35.3247 12.6616 35.1738C12.5506 35.0228 12.4108 34.923 12.2421 34.8741L12.3486 33.5624C12.6594 33.629 12.9279 33.76 13.1543 33.9553C13.3829 34.1506 13.5582 34.4025 13.6803 34.711C13.8046 35.0217 13.8667 35.3813 13.8667 35.7897C13.8667 36.0738 13.8335 36.3456 13.7669 36.6053C13.7003 36.8672 13.5971 37.0991 13.4573 37.3011C13.3174 37.5053 13.1377 37.6662 12.9179 37.7838C12.7004 37.9015 12.4396 37.9603 12.1356 37.9603H8.68652V36.6153H9.39564V36.5754C9.23584 36.4932 9.0949 36.3834 8.97283 36.2458C8.85298 36.1082 8.75866 35.9428 8.68985 35.7497C8.62327 35.5566 8.58998 35.3336 8.58998 35.0805ZM9.56876 35.4867C9.56876 35.6953 9.60982 35.8795 9.69194 36.0394C9.77628 36.1992 9.88947 36.3246 10.0315 36.4155C10.1736 36.5065 10.3345 36.552 10.5142 36.552H11.0569C11.0281 36.5077 11.0014 36.4466 10.977 36.3689C10.9548 36.2935 10.9337 36.208 10.9138 36.1126C10.896 36.0172 10.8794 35.9217 10.8638 35.8263C10.8505 35.7308 10.8383 35.6443 10.8272 35.5666C10.8028 35.4001 10.7639 35.2548 10.7107 35.1305C10.6574 35.0062 10.5853 34.9096 10.4943 34.8408C10.4055 34.772 10.2945 34.7376 10.1614 34.7376C9.96826 34.7376 9.82067 34.8076 9.71857 34.9474C9.6187 35.0894 9.56876 35.2692 9.56876 35.4867ZM8.68652 39.0606H13.8002V40.4355H12.9079V40.4888C13.2253 40.582 13.465 40.7385 13.627 40.9582C13.7913 41.178 13.8734 41.431 13.8734 41.7173C13.8734 41.7883 13.869 41.8649 13.8601 41.947C13.8512 42.0291 13.839 42.1013 13.8235 42.1634H12.565C12.585 42.0968 12.6028 42.0047 12.6183 41.8871C12.6338 41.7694 12.6416 41.6618 12.6416 41.5641C12.6416 41.3555 12.5961 41.1691 12.5051 41.0048C12.4163 40.8428 12.292 40.7141 12.1322 40.6187C11.9724 40.5254 11.7882 40.4788 11.5796 40.4788H8.68652V39.0606Z" fill="white"/>
</g>
<defs>
<clipPath id="clip0_60_351">
<rect width="21.875" height="54.875" fill="white"/>
</clipPath>
</defs>
</svg>
